<?xml version="1.0" encoding="UTF-8" standalone="no"?>
<svg
   xmlns:dc="http://purl.org/dc/elements/1.1/"
   xmlns:cc="http://creativecommons.org/ns#"
   xmlns:rdf="http://www.w3.org/1999/02/22-rdf-syntax-ns#"
   xmlns:svg="http://www.w3.org/2000/svg"
   xmlns="http://www.w3.org/2000/svg"
   xmlns:xlink="http://www.w3.org/1999/xlink"
   xmlns:sodipodi="http://sodipodi.sourceforge.net/DTD/sodipodi-0.dtd"
   xmlns:inkscape="http://www.inkscape.org/namespaces/inkscape"
   height="44px"
   version="1.1"
   viewBox="0 0 44 44"
   width="44px"
   x="0px"
   y="0px"
   id="svg2"
   inkscape:version="0.48.0 r9654"
   sodipodi:docname="aircontrol.svg"
   inkscape:export-filename="aircontrol80.png"
   inkscape:export-xdpi="170.24001"
   inkscape:export-ydpi="170.24001">
  <metadata
     id="metadata18">
    <rdf:RDF>
      <cc:Work
         rdf:about="">
        <dc:format>image/svg+xml</dc:format>
        <dc:type
           rdf:resource="http://purl.org/dc/dcmitype/StillImage" />
        <dc:title></dc:title>
      </cc:Work>
    </rdf:RDF>
  </metadata>
  <defs
     id="defs16">
    <inkscape:perspective
       sodipodi:type="inkscape:persp3d"
       inkscape:vp_x="0 : 22 : 1"
       inkscape:vp_y="0 : 1000 : 0"
       inkscape:vp_z="44 : 22 : 1"
       inkscape:persp3d-origin="22 : 14.666667 : 1"
       id="perspective2836" />
    <filter
       inkscape:collect="always"
       id="filter3813">
      <feGaussianBlur
         inkscape:collect="always"
         stdDeviation="3.2685823"
         id="feGaussianBlur3815" />
    </filter>
    <filter
       inkscape:collect="always"
       id="filter3817">
      <feGaussianBlur
         inkscape:collect="always"
         stdDeviation="3.2685823"
         id="feGaussianBlur3819" />
    </filter>
    <filter
       inkscape:collect="always"
       id="filter3821">
      <feGaussianBlur
         inkscape:collect="always"
         stdDeviation="3.2685823"
         id="feGaussianBlur3823" />
    </filter>
    <filter
       inkscape:collect="always"
       id="filter3825">
      <feGaussianBlur
         inkscape:collect="always"
         stdDeviation="3.2685823"
         id="feGaussianBlur3827" />
    </filter>
    <radialGradient
       inkscape:collect="always"
       xlink:href="#linearGradient3786"
       id="radialGradient3792"
       cx="38.160965"
       cy="25.411646"
       fx="38.160965"
       fy="25.411646"
       r="19.520021"
       gradientTransform="matrix(4.8162495,-3.9033266,3.792779,4.6798471,-497.96429,26.906031)"
       gradientUnits="userSpaceOnUse" />
    <linearGradient
       id="linearGradient3786">
      <stop
         style="stop-color:#f3edec;stop-opacity:0.625;"
         offset="0"
         id="stop3788" />
      <stop
         style="stop-color:#000000;stop-opacity:0;"
         offset="1"
         id="stop3790" />
    </linearGradient>
    <filter
       color-interpolation-filters="sRGB"
       inkscape:collect="always"
       id="filter4395">
      <feGaussianBlur
         inkscape:collect="always"
         stdDeviation="0.29025424"
         id="feGaussianBlur4397" />
    </filter>
    <linearGradient
       gradientTransform="translate(-390.1173,-78.400261)"
       inkscape:collect="always"
       xlink:href="#linearGradient3797"
       id="linearGradient3803"
       x1="178.46799"
       y1="167.7917"
       x2="180.04019"
       y2="-181.39536"
       gradientUnits="userSpaceOnUse" />
    <linearGradient
       inkscape:collect="always"
       id="linearGradient3797">
      <stop
         style="stop-color:#000000;stop-opacity:0.41520467"
         offset="0"
         id="stop3799" />
      <stop
         style="stop-color:#808080;stop-opacity:0.66274512"
         offset="1"
         id="stop3801" />
    </linearGradient>
    <linearGradient
       inkscape:collect="always"
       xlink:href="#linearGradient3797"
       id="linearGradient4021"
       gradientUnits="userSpaceOnUse"
       gradientTransform="translate(-390.1173,-78.400261)"
       x1="178.46799"
       y1="167.7917"
       x2="180.04019"
       y2="-181.39536" />
    <radialGradient
       inkscape:collect="always"
       xlink:href="#linearGradient3786"
       id="radialGradient4023"
       gradientUnits="userSpaceOnUse"
       gradientTransform="matrix(4.8162495,-3.9033266,3.792779,4.6798471,-497.96429,26.906031)"
       cx="38.160965"
       cy="25.411646"
       fx="38.160965"
       fy="25.411646"
       r="19.520021" />
    <radialGradient
       inkscape:collect="always"
       xlink:href="#linearGradient3786"
       id="radialGradient4026"
       gradientUnits="userSpaceOnUse"
       gradientTransform="matrix(2.6843417,-2.1755231,2.1139093,2.6083176,-77.695885,76.090322)"
       cx="38.160965"
       cy="25.411646"
       fx="38.160965"
       fy="25.411646"
       r="19.520021" />
    <linearGradient
       inkscape:collect="always"
       xlink:href="#linearGradient3797"
       id="linearGradient4040"
       gradientUnits="userSpaceOnUse"
       gradientTransform="matrix(0.55735104,0,0,0.55735104,-17.587253,-104.79069)"
       x1="178.46799"
       y1="167.7917"
       x2="180.04019"
       y2="-181.39536" />
    <linearGradient
       inkscape:collect="always"
       xlink:href="#linearGradient3797"
       id="linearGradient4061"
       gradientUnits="userSpaceOnUse"
       gradientTransform="matrix(0.55735104,0,0,0.55735104,-17.587253,-104.79069)"
       x1="178.46799"
       y1="167.7917"
       x2="180.04019"
       y2="-181.39536" />
    <radialGradient
       inkscape:collect="always"
       xlink:href="#linearGradient3786"
       id="radialGradient4063"
       gradientUnits="userSpaceOnUse"
       gradientTransform="matrix(2.6843417,-2.1755231,2.1139093,2.6083176,-77.695885,76.090322)"
       cx="38.160965"
       cy="25.411646"
       fx="38.160965"
       fy="25.411646"
       r="19.520021" />
    <radialGradient
       inkscape:collect="always"
       xlink:href="#linearGradient3786"
       id="radialGradient4066"
       gradientUnits="userSpaceOnUse"
       gradientTransform="matrix(2.817586,-2.2835108,2.2188387,2.7377882,-75.7683,74.780769)"
       cx="38.160965"
       cy="25.411646"
       fx="38.160965"
       fy="25.411646"
       r="19.520021" />
    <linearGradient
       inkscape:collect="always"
       xlink:href="#linearGradient3797"
       id="linearGradient4080"
       gradientUnits="userSpaceOnUse"
       gradientTransform="matrix(0.58501661,0,0,0.58501661,-22.632652,-104.90575)"
       x1="178.46799"
       y1="167.7917"
       x2="180.04019"
       y2="-181.39536" />
  </defs>
  <sodipodi:namedview
     pagecolor="#ffffff"
     bordercolor="#666666"
     borderopacity="1"
     objecttolerance="10"
     gridtolerance="10"
     guidetolerance="10"
     inkscape:pageopacity="0"
     inkscape:pageshadow="2"
     inkscape:window-width="1366"
     inkscape:window-height="716"
     id="namedview14"
     showgrid="false"
     inkscape:zoom="11.295455"
     inkscape:cx="22"
     inkscape:cy="22"
     inkscape:window-x="-8"
     inkscape:window-y="-8"
     inkscape:window-maximized="1"
     inkscape:current-layer="g3" />
  <g
     transform="matrix(0.18308778,0,0,0.18308778,6.6100946,3.2385199)"
     id="g3">
    <rect
       style="fill:#28170b;fill-opacity:1;fill-rule:evenodd;stroke:none;display:inline"
       id="rect2998"
       width="230.99324"
       height="230.99324"
       x="-31.439167"
       y="-13.024015"
       rx="31.999998"
       ry="31.999998" />
    <rect
       ry="31.999998"
       rx="31.999998"
       y="-217.96922"
       x="-31.439167"
       height="230.99324"
       width="230.99324"
       id="rect3026"
       style="fill:url(#linearGradient4080);fill-opacity:1;fill-rule:evenodd;stroke:none;display:inline"
       transform="scale(1,-1)" />
    <path
       style="fill:none;stroke:#000000;stroke-width:1;stroke-linecap:butt;stroke-linejoin:miter;stroke-miterlimit:4;stroke-opacity:1;stroke-dasharray:none;display:inline;filter:url(#filter4395)"
       d="M 14.281459,64.804119 C 19.190745,57.42072 21.978687,51.528788 13.625727,39.083014 12.108589,36.822519 12.877374,30.950117 12.877374,30.950117 13.786672,5.6303528 26.470478,6.60736 32.484255,5.3724531 c 8.281304,-1.700542 17.730314,-0.53131 22.526688,8.2795719 1.559168,4.575516 4.675776,8.17764 4.14439,14.059746 -1.06019,0.700484 -2.957204,0.785634 -2.907399,2.302296 0.562019,0.720828 1.505067,0.727191 2.340131,0.93605 2.622413,2.782918 4.761345,5.826334 6.357383,8.814513 -0.191579,4.707192 -3.187745,2.603253 -5.265311,2.730173 l 2.184122,3.900226 c -0.945956,3.06942 -4.08538,2.199582 -6.1222,2.541842 l 3.562584,0.221774 c 2.515494,-0.44752 1.36249,3.189579 -0.412394,2.770784 1.979658,2.364398 2.360136,6.085654 -0.03112,7.024339 -4.508057,1.769595 -11.645208,2.786581 -13.806814,-1.131071 -0.04596,6.555502 -1.243229,10.509804 -4.095243,10.725642 z"
       id="path3054"
       inkscape:connector-curvature="0"
       sodipodi:nodetypes="cscsccccccccccsccc"
       transform="matrix(3.1952794,0,0,3.1952794,-21.482544,-13.024029)" />
    <g
       id="g3851"
       transform="matrix(0.30347232,-0.49287002,-0.49287002,-0.30347232,102.80305,39.042715)">
      <path
         inkscape:connector-curvature="0"
         id="path3779"
         d="m -143.17803,3.4520933 c -54.22327,0 -98.7702,34.3264087 -103.94604,78.1728857 l 18.09242,4.437762 c 2.5642,-37.563796 39.91434,-67.419847 85.85362,-67.419847 3.11293,0 6.36023,0.07415 9.38758,0.341367 l 0,-15.0201182 c -3.06044,-0.2241712 -6.25654,-0.5120495 -9.38758,-0.5120495 z"
         style="fill:#ff0000;fill-opacity:1;stroke:none;filter:url(#filter3825)" />
      <path
         style="fill:#ffff00;fill-opacity:1;stroke:none;filter:url(#filter3821)"
         d="m -132.25431,14.375815 c -54.22327,0 -98.7702,34.326409 -103.94604,78.172883 l 18.09242,4.43776 c 2.5642,-37.563791 39.91434,-67.419842 85.85362,-67.419842 3.11293,0 6.36023,0.07415 9.38758,0.341367 l 0,-15.020118 c -3.06044,-0.224171 -6.25654,-0.51205 -9.38758,-0.51205 z"
         id="path3791"
         inkscape:connector-curvature="0" />
      <path
         inkscape:connector-curvature="0"
         id="path3793"
         d="m -121.33059,25.299537 c -54.22327,0 -98.7702,34.326409 -103.94604,78.172883 l 18.09242,4.43776 c 2.5642,-37.563791 39.91434,-67.419842 85.85362,-67.419842 3.11293,0 6.36023,0.07415 9.38758,0.341367 l 0,-15.020118 c -3.06044,-0.224171 -6.25654,-0.51205 -9.38758,-0.51205 z"
         style="fill:#0000ff;fill-opacity:1;stroke:none;filter:url(#filter3817)" />
      <path
         style="fill:#008000;fill-opacity:1;stroke:none;filter:url(#filter3813)"
         d="m -110.40687,36.223259 c -54.22327,0 -98.7702,34.326409 -103.94604,78.172881 l 18.09242,4.43776 c 2.5642,-37.563789 39.91434,-67.41984 85.85362,-67.41984 3.11293,0 6.36023,0.07415 9.38758,0.341367 l 0,-15.020118 c -3.06044,-0.224171 -6.25654,-0.51205 -9.38758,-0.51205 z"
         id="path3795"
         inkscape:connector-curvature="0" />
    </g>
    <path
       style="fill:#000000;stroke:#000000;stroke-width:2.03170204px;stroke-linecap:butt;stroke-linejoin:miter;stroke-opacity:1;display:inline"
       d="M 87.288617,13.953454 C 143.88722,10.75759 146.4356,29.86868 150.99754,42.45479 157.89113,61.473742 140.67434,73.23364 129.87302,76.488749 123.45857,89.826765 112.64792,95.228516 95.503725,90.236481 89.188715,103.14097 83.376687,121.23347 77.061689,122.42623 67.495768,113.5689 75.494863,115.55144 73.708597,110.35508 63.159051,105.15069 53.81526,120.44417 42.021804,94.092542 22.624385,90.794026 33.012595,76.335165 30.118261,68.608979 29.409618,46.145679 37.487691,41.31087 46.045525,29.377709 64.684488,13.230935 75.531527,14.616008 87.288617,13.953454 z"
       id="path3828"
       inkscape:connector-curvature="0"
       sodipodi:nodetypes="cscccccccc" />
    <path
       sodipodi:nodetypes="cscccccccc"
       inkscape:connector-curvature="0"
       id="path3016"
       d="M 87.288617,13.953454 C 143.88722,10.75759 146.4356,29.86868 150.99754,42.45479 157.89113,61.473742 140.67434,73.23364 129.87302,76.488749 123.45857,89.826765 112.64792,95.228516 95.503725,90.236481 89.188715,103.14097 83.376687,121.23347 77.061689,122.42623 67.495768,113.5689 75.494863,115.55144 73.708597,110.35508 63.159051,105.15069 53.81526,120.44417 42.021804,94.092542 22.624385,90.794026 33.012595,76.335165 30.118261,68.608979 29.409618,46.145679 37.487691,41.31087 46.045525,29.377709 64.684488,13.230935 75.531527,14.616008 87.288617,13.953454 z"
       style="fill:url(#radialGradient4066);fill-opacity:1;stroke:#000000;stroke-width:2.03170204px;stroke-linecap:butt;stroke-linejoin:miter;stroke-opacity:1;display:inline" />
  </g>
</svg>
